<?xml version="1.0" encoding="UTF-8"?>
<svg id="Layer_1" xmlns="http://www.w3.org/2000/svg" xmlns:xlink="http://www.w3.org/1999/xlink" version="1.1" viewBox="0 0 720 720">
  <!-- Generator: Adobe Illustrator 29.6.1, SVG Export Plug-In . SVG Version: 2.1.1 Build 9)  -->
  <defs>
    <style>
      .st0, .st1, .st2, .st3, .st4, .st5, .st6, .st7, .st8, .st9, .st10, .st11, .st12, .st13, .st14 {
        fill: none;
      }

      .st15 {
        font-size: 8.54px;
      }

      .st15, .st16, .st17, .st18, .st19, .st20 {
        isolation: isolate;
      }

      .st15, .st19 {
        font-family: Arial-BoldMT, Arial;
        font-weight: 700;
      }

      .st16 {
        font-size: 9.8px;
      }

      .st16, .st17, .st18, .st20 {
        font-family: ArialMT, Arial;
      }

      .st17 {
        font-size: 11.2px;
      }

      .st1, .st21, .st2, .st3, .st22, .st12, .st13, .st23, .st24, .st25, .st14 {
        stroke-linejoin: round;
      }

      .st1, .st4, .st5, .st23, .st26 {
        stroke: #0072b2;
      }

      .st1, .st5, .st6, .st27, .st28, .st29, .st9, .st11, .st12, .st13, .st26, .st14 {
        stroke-width: 2.56px;
      }

      .st21 {
        stroke: #fff;
      }

      .st21, .st3 {
        stroke-width: 1.36px;
      }

      .st21, .st30, .st27, .st28, .st29, .st26 {
        fill: #fff;
      }

      .st21, .st22, .st23, .st24, .st25 {
        stroke-linecap: round;
      }

      .st2 {
        stroke: #000;
        stroke-width: 1.07px;
      }

      .st31 {
        clip-path: url(#clippath-19);
      }

      .st32 {
        clip-path: url(#clippath-15);
      }

      .st33 {
        clip-path: url(#clippath-13);
      }

      .st34 {
        clip-path: url(#clippath-21);
      }

      .st35 {
        clip-path: url(#clippath-23);
      }

      .st36 {
        clip-path: url(#clippath-24);
      }

      .st3 {
        stroke: #333;
      }

      .st4, .st5, .st6, .st27, .st7, .st28, .st8, .st29, .st9, .st10, .st11, .st26 {
        stroke-miterlimit: 10;
      }

      .st4, .st7, .st8, .st10 {
        stroke-width: 5.12px;
      }

      .st37 {
        clip-path: url(#clippath-1);
      }

      .st38 {
        clip-path: url(#clippath-3);
      }

      .st39 {
        clip-path: url(#clippath-7);
      }

      .st40 {
        clip-path: url(#clippath-9);
      }

      .st41 {
        clip-path: url(#clippath-5);
      }

      .st18 {
        font-size: 9px;
      }

      .st42 {
        letter-spacing: 0em;
      }

      .st43 {
        letter-spacing: 0em;
      }

      .st44 {
        letter-spacing: 0em;
      }

      .st45 {
        letter-spacing: 0em;
      }

      .st46 {
        letter-spacing: 0em;
      }

      .st47 {
        letter-spacing: 0em;
      }

      .st48 {
        letter-spacing: 0em;
      }

      .st49 {
        letter-spacing: 0em;
      }

      .st22 {
        fill: red;
      }

      .st22, .st27, .st10, .st11, .st12 {
        stroke: red;
      }

      .st22, .st23, .st24, .st25 {
        fill-opacity: .7;
        stroke-opacity: .7;
        stroke-width: .71px;
      }

      .st6, .st7, .st28, .st13, .st24 {
        stroke: #009e73;
      }

      .st8, .st29, .st9, .st25, .st14 {
        stroke: #e69f00;
      }

      .st19 {
        fill: #1a1a1a;
        font-size: 10px;
      }

      .st20 {
        font-size: 14px;
      }

      .st23 {
        fill: #0072b2;
      }

      .st50 {
        letter-spacing: 0em;
      }

      .st24 {
        fill: #009e73;
      }

      .st25 {
        fill: #e69f00;
      }

      .st51 {
        clip-path: url(#clippath);
      }
    </style>
    <clipPath id="clippath">
      <rect class="st0" width="720" height="720"/>
    </clipPath>
    <clipPath id="clippath-1">
      <rect class="st0" x="50.65" y="27.55" width="203.62" height="258.88"/>
    </clipPath>
    <clipPath id="clippath-3">
      <rect class="st0" x="50.65" y="313.98" width="203.62" height="258.88"/>
    </clipPath>
    <clipPath id="clippath-5">
      <rect class="st0" x="280.03" y="27.55" width="203.62" height="258.88"/>
    </clipPath>
    <clipPath id="clippath-7">
      <rect class="st0" x="280.03" y="313.98" width="203.62" height="258.88"/>
    </clipPath>
    <clipPath id="clippath-9">
      <rect class="st0" x="509.4" y="27.55" width="203.62" height="258.88"/>
    </clipPath>
    <clipPath id="clippath-13">
      <rect class="st0" x="50.65" y="293.4" width="203.62" height="20.58"/>
    </clipPath>
    <clipPath id="clippath-15">
      <rect class="st0" x="280.03" y="293.4" width="203.62" height="20.58"/>
    </clipPath>
    <clipPath id="clippath-19">
      <rect class="st0" x="50.65" y="6.97" width="203.62" height="20.58"/>
    </clipPath>
    <clipPath id="clippath-21">
      <rect class="st0" x="280.03" y="6.97" width="203.62" height="20.58"/>
    </clipPath>
    <clipPath id="clippath-23">
      <rect class="st0" x="509.4" y="6.97" width="203.62" height="20.58"/>
    </clipPath>
    <clipPath id="clippath-24">
      <rect class="st0" width="720" height="720"/>
    </clipPath>
  </defs>
  <rect class="st30" width="720" height="720"/>
  <g class="st51">
    <rect class="st21" width="720" height="720"/>
  </g>
  <g class="st37">
    <g>
      <rect class="st30" x="50.65" y="27.55" width="203.62" height="258.88"/>
      <line class="st14" x1="79.74" y1="89.94" x2="79.74" y2="41.87"/>
      <line class="st14" x1="79.74" y1="124.79" x2="79.74" y2="132.06"/>
      <polygon class="st29" points="61.56 89.94 61.56 124.79 97.92 124.79 97.92 89.94 61.56 89.94"/>
      <line class="st8" x1="61.56" y1="98.52" x2="97.92" y2="98.52"/>
      <line class="st1" x1="128.22" y1="103.89" x2="128.22" y2="99.98"/>
      <line class="st1" x1="128.22" y1="140.2" x2="128.22" y2="143.09"/>
      <polygon class="st26" points="110.04 103.89 110.04 140.2 146.4 140.2 146.4 103.89 110.04 103.89"/>
      <line class="st4" x1="110.04" y1="123.57" x2="146.4" y2="123.57"/>
      <line class="st13" x1="176.7" y1="98.09" x2="176.7" y2="88.2"/>
      <line class="st13" x1="176.7" y1="151.38" x2="176.7" y2="198.88"/>
      <polygon class="st28" points="158.52 98.09 158.52 151.38 194.88 151.38 194.88 98.09 158.52 98.09"/>
      <line class="st7" x1="158.52" y1="133.13" x2="194.88" y2="133.13"/>
      <line class="st12" x1="225.18" y1="92.37" x2="225.18" y2="78.79"/>
      <line class="st12" x1="225.18" y1="130.25" x2="225.18" y2="182.62"/>
      <polygon class="st27" points="207 92.37 207 130.25 243.36 130.25 243.36 92.37 207 92.37"/>
      <line class="st10" x1="207" y1="102.59" x2="243.36" y2="102.59"/>
      <circle class="st25" cx="71.73" cy="249.82" r="3.02"/>
      <circle class="st25" cx="85.77" cy="132.05" r="3.02"/>
      <circle class="st25" cx="89.27" cy="102.95" r="3.02"/>
      <circle class="st25" cx="81.34" cy="94.07" r="3.02"/>
      <circle class="st25" cx="75.86" cy="41.85" r="3.02"/>
      <circle class="st25" cx="77.59" cy="88.57" r="3.02"/>
      <circle class="st23" cx="135.98" cy="274.66" r="3.02"/>
      <circle class="st23" cx="120.77" cy="143.09" r="3.02"/>
      <circle class="st23" cx="133.21" cy="99.96" r="3.02"/>
      <circle class="st23" cx="130.57" cy="131.52" r="3.02"/>
      <circle class="st23" cx="121.03" cy="39.33" r="3.02"/>
      <circle class="st23" cx="122.78" cy="115.62" r="3.02"/>
      <circle class="st24" cx="169.62" cy="198.88" r="3.02"/>
      <circle class="st24" cx="175.51" cy="90.8" r="3.02"/>
      <circle class="st24" cx="174.59" cy="146.33" r="3.02"/>
      <circle class="st24" cx="172.96" cy="88.18" r="3.02"/>
      <circle class="st24" cx="182.63" cy="119.96" r="3.02"/>
      <circle class="st24" cx="178.48" cy="153.05" r="3.02"/>
      <circle class="st22" cx="232.85" cy="182.64" r="3.02"/>
      <circle class="st22" cx="221.24" cy="103.4" r="3.02"/>
      <circle class="st22" cx="230.41" cy="139.18" r="3.02"/>
      <circle class="st22" cx="227.33" cy="78.81" r="3.02"/>
      <circle class="st22" cx="228.19" cy="89.26" r="3.02"/>
      <circle class="st22" cx="231.28" cy="101.75" r="3.02"/>
      <text class="st15" transform="translate(83.43 51.08)"><tspan x="0" y="0">p = 0.93</tspan></text>
    </g>
  </g>
  <g class="st38">
    <g>
      <rect class="st30" x="50.65" y="313.98" width="203.62" height="258.88"/>
      <line class="st14" x1="79.74" y1="368.69" x2="79.74" y2="354.59"/>
      <line class="st14" x1="79.74" y1="510.31" x2="79.74" y2="527.33"/>
      <polygon class="st29" points="61.56 368.69 61.56 510.31 97.92 510.31 97.92 368.69 61.56 368.69"/>
      <line class="st8" x1="61.56" y1="422.32" x2="97.92" y2="422.32"/>
      <line class="st1" x1="128.22" y1="364.79" x2="128.22" y2="325.76"/>
      <line class="st1" x1="128.22" y1="496.13" x2="128.22" y2="496.22"/>
      <polygon class="st26" points="110.04 364.79 110.04 496.13 146.4 496.13 146.4 364.79 110.04 364.79"/>
      <line class="st4" x1="110.04" y1="452.78" x2="146.4" y2="452.78"/>
      <line class="st13" x1="176.7" y1="358.48" x2="176.7" y2="334.84"/>
      <line class="st13" x1="176.7" y1="550.27" x2="176.7" y2="561.07"/>
      <polygon class="st28" points="158.52 358.48 158.52 550.27 194.88 550.27 194.88 358.48 158.52 358.48"/>
      <line class="st7" x1="158.52" y1="449.75" x2="194.88" y2="449.75"/>
      <line class="st12" x1="225.18" y1="474.28" x2="225.18" y2="474.28"/>
      <line class="st12" x1="225.18" y1="509.56" x2="225.18" y2="551.64"/>
      <polygon class="st27" points="207 474.28 207 509.56 243.36 509.56 243.36 474.28 207 474.28"/>
      <line class="st10" x1="207" y1="493.13" x2="243.36" y2="493.13"/>
      <circle class="st25" cx="80.18" cy="382.51" r="3.02"/>
      <circle class="st25" cx="85.17" cy="368.69" r="3.02"/>
      <circle class="st25" cx="88.08" cy="462.13" r="3.02"/>
      <circle class="st25" cx="73.32" cy="354.6" r="3.02"/>
      <circle class="st25" cx="82.83" cy="510.31" r="3.02"/>
      <circle class="st25" cx="71.17" cy="527.33" r="3.02"/>
      <circle class="st23" cx="122.78" cy="496.13" r="3.02"/>
      <circle class="st23" cx="119.41" cy="458.17" r="3.02"/>
      <circle class="st23" cx="129.33" cy="496.24" r="3.02" transform="translate(-374.83 590.07) rotate(-85.93)"/>
      <circle class="st23" cx="135.16" cy="364.8" r="3.02"/>
      <circle class="st23" cx="128.59" cy="325.77" r="3.02" transform="translate(-205.48 430.94) rotate(-85.93)"/>
      <circle class="st23" cx="122.03" cy="447.4" r="3.02"/>
      <circle class="st24" cx="186.34" cy="561.08" r="3.02"/>
      <circle class="st24" cx="179.66" cy="334.82" r="3.02"/>
      <circle class="st24" cx="171.6" cy="550.28" r="3.02"/>
      <circle class="st24" cx="176.41" cy="460.96" r="3.02"/>
      <circle class="st24" cx="170.9" cy="358.47" r="3.02"/>
      <circle class="st24" cx="170.17" cy="438.53" r="3.02"/>
      <circle class="st22" cx="224.06" cy="489.17" r="3.02"/>
      <circle class="st22" cx="216.85" cy="509.55" r="3.02"/>
      <circle class="st22" cx="216.56" cy="551.64" r="3.02"/>
      <circle class="st22" cx="228.34" cy="474.26" r="3.02"/>
      <circle class="st22" cx="224.99" cy="497.11" r="3.02"/>
      <circle class="st22" cx="230" cy="381.48" r="3.02"/>
      <circle class="st25" cx="81.04" cy="382.54" r="3.02"/>
      <circle class="st25" cx="77.8" cy="368.68" r="3.02"/>
      <circle class="st25" cx="81.29" cy="462.13" r="3.02"/>
      <circle class="st25" cx="84.32" cy="354.57" r="3.02"/>
      <circle class="st25" cx="82.9" cy="510.33" r="3.02"/>
      <circle class="st25" cx="76.96" cy="527.32" r="3.02"/>
      <circle class="st23" cx="126.93" cy="496.14" r="3.02"/>
      <circle class="st23" cx="120.6" cy="458.18" r="3.02"/>
      <circle class="st23" cx="137.53" cy="496.21" r="3.02"/>
      <circle class="st23" cx="133.13" cy="364.77" r="3.02"/>
      <circle class="st23" cx="134.76" cy="325.78" r="3.02"/>
      <circle class="st23" cx="136.69" cy="447.41" r="3.02"/>
      <circle class="st24" cx="177.5" cy="561.09" r="3.02"/>
      <circle class="st24" cx="183.6" cy="334.82" r="3.02"/>
      <circle class="st24" cx="175.18" cy="550.25" r="3.02"/>
      <circle class="st24" cx="175.5" cy="460.96" r="3.02"/>
      <circle class="st24" cx="173.23" cy="358.47" r="3.02"/>
      <circle class="st24" cx="170.07" cy="438.55" r="3.02"/>
      <circle class="st22" cx="218.63" cy="489.17" r="3.02"/>
      <circle class="st22" cx="215.8" cy="509.55" r="3.02"/>
      <circle class="st22" cx="229.29" cy="551.66" r="3.02"/>
      <circle class="st22" cx="225" cy="474.28" r="3.02"/>
      <circle class="st22" cx="216.94" cy="497.1" r="3.02"/>
      <circle class="st22" cx="219.24" cy="381.52" r="3.02"/>
      <circle class="st25" cx="80.85" cy="382.53" r="3.02"/>
      <circle class="st25" cx="74.08" cy="368.71" r="3.02"/>
      <circle class="st25" cx="81.28" cy="462.14" r="3.02"/>
      <circle class="st25" cx="74.12" cy="354.58" r="3.02"/>
      <circle class="st25" cx="78.68" cy="510.3" r="3.02"/>
      <circle class="st25" cx="71.05" cy="527.34" r="3.02"/>
      <circle class="st23" cx="121.47" cy="496.14" r="3.02"/>
      <circle class="st23" cx="122.34" cy="458.17" r="3.02"/>
      <circle class="st23" cx="127.9" cy="496.22" r="3.02"/>
      <circle class="st23" cx="124.18" cy="364.79" r="3.02"/>
      <circle class="st23" cx="121.32" cy="325.74" r="3.02"/>
      <circle class="st23" cx="132.34" cy="447.39" r="3.02"/>
      <circle class="st24" cx="183.86" cy="561.07" r="3.02"/>
      <circle class="st24" cx="168.51" cy="334.85" r="3.02"/>
      <circle class="st24" cx="177.66" cy="550.27" r="3.02"/>
      <circle class="st24" cx="176.55" cy="460.96" r="3.02"/>
      <circle class="st24" cx="175.44" cy="358.5" r="3.02"/>
      <circle class="st24" cx="175.82" cy="438.53" r="3.02"/>
      <circle class="st22" cx="223.65" cy="489.17" r="3.02"/>
      <circle class="st22" cx="233.44" cy="509.55" r="3.02"/>
      <circle class="st22" cx="216.38" cy="551.62" r="3.02"/>
      <circle class="st22" cx="218.99" cy="474.28" r="3.02"/>
      <circle class="st22" cx="229.43" cy="497.11" r="3.02"/>
      <circle class="st22" cx="215.78" cy="381.49" r="3.02"/>
      <text class="st15" transform="translate(73.43 337.53)"><tspan x="0" y="0">p</tspan><tspan class="st50" x="5.22" y="0"> </tspan><tspan x="7.57" y="0">=</tspan><tspan class="st50" x="12.56" y="0"> </tspan><tspan x="14.92" y="0">0.11</tspan></text>
    </g>
  </g>
  <g class="st41">
    <g>
      <rect class="st30" x="280.03" y="27.55" width="203.62" height="258.88"/>
      <line class="st14" x1="309.12" y1="132.5" x2="309.12" y2="39.33"/>
      <line class="st14" x1="309.12" y1="233.13" x2="309.12" y2="241.42"/>
      <polygon class="st29" points="290.94 132.5 290.94 233.13 327.3 233.13 327.3 132.5 290.94 132.5"/>
      <line class="st8" x1="290.94" y1="184.83" x2="327.3" y2="184.83"/>
      <line class="st1" x1="357.6" y1="189.25" x2="357.6" y2="183.46"/>
      <line class="st1" x1="357.6" y1="226.13" x2="357.6" y2="274.66"/>
      <polygon class="st26" points="339.42 189.25 339.42 226.13 375.78 226.13 375.78 189.25 339.42 189.25"/>
      <line class="st4" x1="339.42" y1="209.4" x2="375.78" y2="209.4"/>
      <line class="st13" x1="406.08" y1="171.45" x2="406.08" y2="113.41"/>
      <line class="st13" x1="406.08" y1="232.56" x2="406.08" y2="243.34"/>
      <polygon class="st28" points="387.9 171.45 387.9 232.56 424.26 232.56 424.26 171.45 387.9 171.45"/>
      <line class="st7" x1="387.9" y1="206.64" x2="424.26" y2="206.64"/>
      <line class="st12" x1="454.56" y1="189.1" x2="454.56" y2="184.76"/>
      <line class="st12" x1="454.56" y1="221.32" x2="454.56" y2="248.16"/>
      <polygon class="st27" points="436.38 189.1 436.38 221.32 472.74 221.32 472.74 189.1 436.38 189.1"/>
      <line class="st10" x1="436.38" y1="204.77" x2="472.74" y2="204.77"/>
      <circle class="st25" cx="312.48" cy="125.87" r="3.02"/>
      <circle class="st25" cx="316.22" cy="152.39" r="3.02"/>
      <circle class="st25" cx="313.14" cy="238.4" r="3.02"/>
      <circle class="st25" cx="300.77" cy="217.28" r="3.02"/>
      <circle class="st25" cx="299.58" cy="39.32" r="3.02"/>
      <circle class="st25" cx="312.86" cy="241.42" r="3.02"/>
      <circle class="st23" cx="362.32" cy="274.66" r="3.02"/>
      <circle class="st23" cx="358.57" cy="183.47" r="3.02"/>
      <circle class="st23" cx="362.76" cy="98.54" r="3.02"/>
      <circle class="st23" cx="349.22" cy="206.62" r="3.02"/>
      <circle class="st23" cx="349.49" cy="230.78" r="3.02"/>
      <circle class="st23" cx="351.49" cy="212.19" r="3.02"/>
      <circle class="st24" cx="408.41" cy="243.33" r="3.02"/>
      <circle class="st24" cx="405.15" cy="163.52" r="3.02"/>
      <circle class="st24" cx="413.59" cy="218.04" r="3.02"/>
      <circle class="st24" cx="402.51" cy="113.41" r="3.02"/>
      <circle class="st24" cx="407.44" cy="195.22" r="3.02"/>
      <circle class="st24" cx="410.7" cy="237.4" r="3.02"/>
      <circle class="st22" cx="457.18" cy="200.88" r="3.02"/>
      <circle class="st22" cx="457.31" cy="248.15" r="3.02"/>
      <circle class="st22" cx="447.4" cy="185.18" r="3.02"/>
      <circle class="st22" cx="445.95" cy="208.64" r="3.02"/>
      <circle class="st22" cx="460.96" cy="225.55" r="3.02"/>
      <circle class="st22" cx="451.27" cy="184.77" r="3.02"/>
      <text class="st15" transform="translate(314.81 51.09)"><tspan x="0" y="0">p = 0.65</tspan></text>
    </g>
  </g>
  <g class="st39">
    <g>
      <rect class="st30" x="280.03" y="313.98" width="203.62" height="258.88"/>
      <line class="st14" x1="309.12" y1="391.4" x2="309.12" y2="325.74"/>
      <line class="st14" x1="309.12" y1="470.31" x2="309.12" y2="513.68"/>
      <polygon class="st29" points="290.94 391.4 290.94 470.31 327.3 470.31 327.3 391.4 290.94 391.4"/>
      <line class="st8" x1="290.94" y1="450.03" x2="327.3" y2="450.03"/>
      <line class="st1" x1="357.6" y1="444.53" x2="357.6" y2="377.35"/>
      <line class="st1" x1="357.6" y1="502.34" x2="357.6" y2="522.39"/>
      <polygon class="st26" points="339.42 444.53 339.42 502.34 375.78 502.34 375.78 444.53 339.42 444.53"/>
      <line class="st4" x1="339.42" y1="492.94" x2="375.78" y2="492.94"/>
      <line class="st13" x1="406.08" y1="446.83" x2="406.08" y2="416.09"/>
      <line class="st13" x1="406.08" y1="524.7" x2="406.08" y2="561.09"/>
      <polygon class="st28" points="387.9 446.83 387.9 524.7 424.26 524.7 424.26 446.83 387.9 446.83"/>
      <line class="st7" x1="387.9" y1="495.39" x2="424.26" y2="495.39"/>
      <line class="st12" x1="454.56" y1="427.92" x2="454.56" y2="420.46"/>
      <line class="st12" x1="454.56" y1="501.13" x2="454.56" y2="511.75"/>
      <polygon class="st27" points="436.38 427.92 436.38 501.13 472.74 501.13 472.74 427.92 436.38 427.92"/>
      <line class="st10" x1="436.38" y1="470.9" x2="472.74" y2="470.9"/>
      <circle class="st25" cx="302.53" cy="378.18" r="3.02"/>
      <circle class="st25" cx="315.4" cy="469.03" r="3.02"/>
      <circle class="st25" cx="313.76" cy="513.66" r="3.02"/>
      <circle class="st25" cx="303.68" cy="325.76" r="3.02"/>
      <circle class="st25" cx="310.39" cy="431" r="3.02"/>
      <circle class="st25" cx="303.02" cy="470.73" r="3.02"/>
      <circle class="st23" cx="360.51" cy="522.39" r="3.02"/>
      <circle class="st23" cx="360.32" cy="431.31" r="3.02"/>
      <circle class="st23" cx="348.91" cy="377.33" r="3.02"/>
      <circle class="st23" cx="353.09" cy="484.15" r="3.02"/>
      <circle class="st23" cx="355.53" cy="502.57" r="3.02"/>
      <circle class="st23" cx="352.03" cy="501.73" r="3.02"/>
      <circle class="st24" cx="405.73" cy="416.09" r="3.02"/>
      <circle class="st24" cx="406.47" cy="519.85" r="3.02"/>
      <circle class="st24" cx="411.52" cy="470.94" r="3.02"/>
      <circle class="st24" cx="406.56" cy="526.31" r="3.02"/>
      <circle class="st24" cx="408.3" cy="438.79" r="3.02"/>
      <circle class="st24" cx="397.47" cy="561.08" r="3.02"/>
      <circle class="st22" cx="462.77" cy="421.53" r="3.02"/>
      <circle class="st22" cx="449.61" cy="511.77" r="3.02"/>
      <circle class="st22" cx="460.54" cy="447.05" r="3.02"/>
      <circle class="st22" cx="450.16" cy="503.27" r="3.02"/>
      <circle class="st22" cx="458.76" cy="420.45" r="3.02"/>
      <circle class="st22" cx="458.54" cy="494.77" r="3.02"/>
      <text class="st15" transform="translate(318.42 337.51)"><tspan x="0" y="0">p = 0.38</tspan></text>
    </g>
  </g>
  <g class="st40">
    <g>
      <rect class="st30" x="509.4" y="27.55" width="203.62" height="258.88"/>
      <line class="st14" x1="538.49" y1="194.05" x2="538.49" y2="189.14"/>
      <line class="st14" x1="538.49" y1="226.3" x2="538.49" y2="274.66"/>
      <polygon class="st29" points="520.31 194.05 520.31 226.3 556.67 226.3 556.67 194.05 520.31 194.05"/>
      <line class="st8" x1="520.31" y1="217.02" x2="556.67" y2="217.02"/>
      <line class="st1" x1="586.97" y1="148.12" x2="586.97" y2="139.59"/>
      <line class="st1" x1="586.97" y1="181.47" x2="586.97" y2="227.93"/>
      <polygon class="st26" points="568.79 148.12 568.79 181.47 605.16 181.47 605.16 148.12 568.79 148.12"/>
      <line class="st4" x1="568.79" y1="174.4" x2="605.16" y2="174.4"/>
      <line class="st13" x1="635.46" y1="147.95" x2="635.46" y2="142.5"/>
      <line class="st13" x1="635.46" y1="202.82" x2="635.46" y2="242.16"/>
      <polygon class="st28" points="617.28 147.95 617.28 202.82 653.64 202.82 653.64 147.95 617.28 147.95"/>
      <line class="st7" x1="617.28" y1="175.66" x2="653.64" y2="175.66"/>
      <line class="st12" x1="683.94" y1="169.93" x2="683.94" y2="138.95"/>
      <line class="st12" x1="683.94" y1="226.66" x2="683.94" y2="266.44"/>
      <polygon class="st27" points="665.76 169.93 665.76 226.66 702.12 226.66 702.12 169.93 665.76 169.93"/>
      <line class="st10" x1="665.76" y1="180.81" x2="702.12" y2="180.81"/>
      <circle class="st25" cx="537.7" cy="274.66" r="3.02"/>
      <circle class="st25" cx="545.51" cy="225.25" r="3.02"/>
      <circle class="st25" cx="542.41" cy="226.66" r="3.02"/>
      <circle class="st25" cx="537.09" cy="208.78" r="3.02"/>
      <circle class="st25" cx="547.75" cy="39.32" r="3.02"/>
      <circle class="st25" cx="540.72" cy="189.13" r="3.02"/>
      <circle class="st23" cx="577.72" cy="86.9" r="3.02"/>
      <circle class="st23" cx="589.88" cy="227.93" r="3.02"/>
      <circle class="st23" cx="591.9" cy="173.7" r="3.02"/>
      <circle class="st23" cx="584.86" cy="139.6" r="3.02"/>
      <circle class="st23" cx="584.96" cy="175.09" r="3.02"/>
      <circle class="st23" cx="589.44" cy="183.6" r="3.02"/>
      <circle class="st24" cx="627.42" cy="242.15" r="3.02"/>
      <circle class="st24" cx="630.37" cy="142.51" r="3.02"/>
      <circle class="st24" cx="636.59" cy="208.06" r="3.02"/>
      <circle class="st24" cx="643.52" cy="164.27" r="3.02"/>
      <circle class="st24" cx="640.29" cy="47.81" r="3.02"/>
      <circle class="st24" cx="628.66" cy="187.03" r="3.02"/>
      <circle class="st22" cx="691.96" cy="138.95" r="3.02"/>
      <circle class="st22" cx="681.11" cy="174.29" r="3.02"/>
      <circle class="st22" cx="692.69" cy="239.77" r="3.02"/>
      <circle class="st22" cx="682.29" cy="187.34" r="3.02"/>
      <circle class="st22" cx="691" cy="266.44" r="3.02"/>
      <circle class="st22" cx="690.66" cy="168.49" r="3.02"/>
      <text class="st15" transform="translate(532.19 51.09)"><tspan x="0" y="0">p = 0.71</tspan></text>
    </g>
  </g>
  <g class="st33">
    <text class="st19" transform="translate(89.49 307.29)"><tspan x="0" y="0">Glucose/Fructose-P</tspan><tspan class="st45" x="94.47" y="0"> </tspan><tspan x="97.28" y="0">[M-H]-</tspan></text>
  </g>
  <g class="st32">
    <text class="st19" transform="translate(334.61 307.29)"><tspan x="0" y="0">succinic</tspan><tspan class="st44" x="40.02" y="0"> </tspan><tspan x="42.81" y="0">acid</tspan><tspan class="st44" x="62.82" y="0"> </tspan><tspan x="65.62" y="0">[M-H]-</tspan></text>
  </g>
  <g class="st31">
    <text class="st19" transform="translate(103.85 20.86)"><tspan x="0" y="0">(R)-lactic</tspan><tspan class="st46" x="42.78" y="0"> </tspan><tspan x="45.59" y="0">acid</tspan><tspan class="st47" x="65.6" y="0"> </tspan><tspan x="68.4" y="0">[M-H]-</tspan></text>
  </g>
  <g class="st34">
    <text class="st19" transform="translate(335.73 20.86)"><tspan x="0" y="0">aconitic</tspan><tspan class="st42" x="37.79" y="0"> </tspan><tspan x="40.58" y="0">acid</tspan><tspan class="st43" x="60.59" y="0"> </tspan><tspan x="63.39" y="0">[M-H]-</tspan></text>
  </g>
  <g class="st35">
    <text class="st19" transform="translate(572.05 20.86)"><tspan x="0" y="0">citric</tspan><tspan class="st48" x="23.9" y="0"> </tspan><tspan x="26.7" y="0">acid</tspan><tspan class="st49" x="46.71" y="0"> </tspan><tspan x="49.51" y="0">[M-H]-</tspan></text>
  </g>
  <g class="st36">
    <g>
      <line class="st2" x1="50.65" y1="572.86" x2="254.27" y2="572.86"/>
      <line class="st3" x1="79.74" y1="576.34" x2="79.74" y2="572.86"/>
      <line class="st3" x1="128.22" y1="576.34" x2="128.22" y2="572.86"/>
      <line class="st3" x1="176.7" y1="576.34" x2="176.7" y2="572.86"/>
      <line class="st3" x1="225.18" y1="576.34" x2="225.18" y2="572.86"/>
      <text class="st18" transform="translate(86.2 662.85) rotate(-90)"><tspan x="0" y="0">0µM ERAP1 inhibitor</tspan></text>
      <text class="st18" transform="translate(134.68 667.86) rotate(-90)"><tspan x="0" y="0">10µM ERAP1 inhibitor</tspan></text>
      <text class="st18" transform="translate(183.16 667.86) rotate(-90)"><tspan x="0" y="0">50µM ERAP1 inhibitor</tspan></text>
      <text class="st18" transform="translate(231.64 592.13) rotate(-90)"><tspan x="0" y="0">KO</tspan></text>
      <line class="st2" x1="280.03" y1="572.86" x2="483.65" y2="572.86"/>
      <line class="st3" x1="309.12" y1="576.34" x2="309.12" y2="572.86"/>
      <line class="st3" x1="357.6" y1="576.34" x2="357.6" y2="572.86"/>
      <line class="st3" x1="406.08" y1="576.34" x2="406.08" y2="572.86"/>
      <line class="st3" x1="454.56" y1="576.34" x2="454.56" y2="572.86"/>
      <text class="st18" transform="translate(315.57 662.85) rotate(-90)"><tspan x="0" y="0">0µM ERAP1 inhibitor</tspan></text>
      <text class="st18" transform="translate(364.06 667.86) rotate(-90)"><tspan x="0" y="0">10µM ERAP1 inhibitor</tspan></text>
      <text class="st18" transform="translate(412.54 667.86) rotate(-90)"><tspan x="0" y="0">50µM ERAP1 inhibitor</tspan></text>
      <text class="st18" transform="translate(461.02 592.13) rotate(-90)"><tspan x="0" y="0">KO</tspan></text>
      <line class="st2" x1="509.4" y1="286.43" x2="713.03" y2="286.43"/>
      <line class="st3" x1="538.49" y1="289.91" x2="538.49" y2="286.43"/>
      <line class="st3" x1="586.97" y1="289.91" x2="586.97" y2="286.43"/>
      <line class="st3" x1="635.46" y1="289.91" x2="635.46" y2="286.43"/>
      <line class="st3" x1="683.94" y1="289.91" x2="683.94" y2="286.43"/>
      <text class="st18" transform="translate(544.95 376.42) rotate(-90)"><tspan x="0" y="0">0µM ERAP1 inhibitor</tspan></text>
      <text class="st18" transform="translate(593.43 381.43) rotate(-90)"><tspan x="0" y="0">10µM ERAP1 inhibitor</tspan></text>
      <text class="st18" transform="translate(641.91 381.43) rotate(-90)"><tspan x="0" y="0">50µM ERAP1 inhibitor</tspan></text>
      <text class="st18" transform="translate(690.4 305.7) rotate(-90)"><tspan x="0" y="0">KO</tspan></text>
      <line class="st2" x1="509.4" y1="286.43" x2="509.4" y2="27.55"/>
      <text class="st18" transform="translate(490.62 227.78)"><tspan x="0" y="0">2.1</tspan></text>
      <text class="st18" transform="translate(490.62 156.11)"><tspan x="0" y="0">2.4</tspan></text>
      <text class="st18" transform="translate(490.62 84.44)"><tspan x="0" y="0">2.7</tspan></text>
      <line class="st3" x1="505.92" y1="224.56" x2="509.4" y2="224.56"/>
      <line class="st3" x1="505.92" y1="152.88" x2="509.4" y2="152.88"/>
      <line class="st3" x1="505.92" y1="81.21" x2="509.4" y2="81.21"/>
      <line class="st2" x1="280.03" y1="286.43" x2="280.03" y2="27.55"/>
      <text class="st18" transform="translate(261.24 248.33)"><tspan x="0" y="0">0.4</tspan></text>
      <text class="st18" transform="translate(261.24 182.14)"><tspan x="0" y="0">0.8</tspan></text>
      <text class="st18" transform="translate(261.24 115.96)"><tspan x="0" y="0">1.2</tspan></text>
      <text class="st18" transform="translate(261.24 49.77)"><tspan x="0" y="0">1.6</tspan></text>
      <line class="st3" x1="276.54" y1="245.1" x2="280.03" y2="245.1"/>
      <line class="st3" x1="276.54" y1="178.91" x2="280.03" y2="178.91"/>
      <line class="st3" x1="276.54" y1="112.73" x2="280.03" y2="112.73"/>
      <line class="st3" x1="276.54" y1="46.54" x2="280.03" y2="46.54"/>
      <line class="st2" x1="280.03" y1="572.86" x2="280.03" y2="313.98"/>
      <text class="st18" transform="translate(261.24 557.26)"><tspan x="0" y="0">0.6</tspan></text>
      <text class="st18" transform="translate(261.24 498.86)"><tspan x="0" y="0">0.8</tspan></text>
      <text class="st18" transform="translate(261.24 440.47)"><tspan x="0" y="0">1.0</tspan></text>
      <text class="st18" transform="translate(261.24 382.07)"><tspan x="0" y="0">1.2</tspan></text>
      <text class="st18" transform="translate(261.24 323.68)"><tspan x="0" y="0">1.4</tspan></text>
      <line class="st3" x1="276.54" y1="554.03" x2="280.03" y2="554.03"/>
      <line class="st3" x1="276.54" y1="495.63" x2="280.03" y2="495.63"/>
      <line class="st3" x1="276.54" y1="437.24" x2="280.03" y2="437.24"/>
      <line class="st3" x1="276.54" y1="378.84" x2="280.03" y2="378.84"/>
      <line class="st3" x1="276.54" y1="320.45" x2="280.03" y2="320.45"/>
      <line class="st2" x1="50.65" y1="286.43" x2="50.65" y2="27.55"/>
      <text class="st18" transform="translate(26.85 225.55)"><tspan x="0" y="0">2.25</tspan></text>
      <text class="st18" transform="translate(26.85 154.3)"><tspan x="0" y="0">2.50</tspan></text>
      <text class="st18" transform="translate(26.85 83.05)"><tspan x="0" y="0">2.75</tspan></text>
      <line class="st3" x1="47.16" y1="222.32" x2="50.65" y2="222.32"/>
      <line class="st3" x1="47.16" y1="151.07" x2="50.65" y2="151.07"/>
      <line class="st3" x1="47.16" y1="79.82" x2="50.65" y2="79.82"/>
      <line class="st2" x1="50.65" y1="572.86" x2="50.65" y2="313.98"/>
      <text class="st18" transform="translate(26.85 512.32)"><tspan x="0" y="0">0.50</tspan></text>
      <text class="st18" transform="translate(26.85 439.98)"><tspan x="0" y="0">0.75</tspan></text>
      <text class="st18" transform="translate(26.85 367.64)"><tspan x="0" y="0">1.00</tspan></text>
      <line class="st3" x1="47.16" y1="509.09" x2="50.65" y2="509.09"/>
      <line class="st3" x1="47.16" y1="436.75" x2="50.65" y2="436.75"/>
      <line class="st3" x1="47.16" y1="364.41" x2="50.65" y2="364.41"/>
      <text class="st20" transform="translate(17.18 346.84) rotate(-90)"><tspan x="0" y="0">l</tspan></text>
      <text class="st20" transform="translate(17.18 343.73) rotate(-90)"><tspan x="0" y="0">o</tspan></text>
      <text class="st20" transform="translate(17.18 335.94) rotate(-90)"><tspan x="0" y="0">g</tspan></text>
      <text class="st16" transform="translate(19.75 328.16) rotate(-90)"><tspan x="0" y="0">10</tspan></text>
      <text class="st20" transform="translate(17.18 317.26) rotate(-90)"><tspan x="0" y="0">(µMol + 1)</tspan></text>
      <rect class="st30" x="112.47" y="681.8" width="538.74" height="31.23"/>
      <text class="st20" transform="translate(119.44 702.43)"><tspan x="0" y="0">Condition</tspan></text>
      <line class="st9" x1="194.19" y1="704.32" x2="194.19" y2="701.73"/>
      <line class="st9" x1="194.19" y1="693.09" x2="194.19" y2="690.5"/>
      <rect class="st29" x="187.71" y="693.09" width="12.96" height="8.64"/>
      <line class="st9" x1="187.71" y1="697.41" x2="200.67" y2="697.41"/>
      <circle class="st25" cx="194.19" cy="697.41" r="3.02"/>
      <line class="st5" x1="329.46" y1="704.32" x2="329.46" y2="701.73"/>
      <line class="st5" x1="329.46" y1="693.09" x2="329.46" y2="690.5"/>
      <rect class="st26" x="322.98" y="693.09" width="12.96" height="8.64"/>
      <line class="st5" x1="322.98" y1="697.41" x2="335.94" y2="697.41"/>
      <circle class="st23" cx="329.46" cy="697.41" r="3.02"/>
      <line class="st6" x1="470.96" y1="704.32" x2="470.96" y2="701.73"/>
      <line class="st6" x1="470.96" y1="693.09" x2="470.96" y2="690.5"/>
      <rect class="st28" x="464.48" y="693.09" width="12.96" height="8.64"/>
      <line class="st6" x1="464.48" y1="697.41" x2="477.44" y2="697.41"/>
      <circle class="st24" cx="470.96" cy="697.41" r="3.02"/>
      <line class="st11" x1="612.46" y1="704.32" x2="612.46" y2="701.73"/>
      <line class="st11" x1="612.46" y1="693.09" x2="612.46" y2="690.5"/>
      <rect class="st27" x="605.98" y="693.09" width="12.96" height="8.64"/>
      <line class="st11" x1="605.98" y1="697.41" x2="618.94" y2="697.41"/>
      <circle class="st22" cx="612.46" cy="697.41" r="3.02"/>
      <text class="st17" transform="translate(209.8 701.43)"><tspan x="0" y="0">0µM ERAP1 inhibitor</tspan></text>
      <text class="st17" transform="translate(345.08 701.43)"><tspan x="0" y="0">10µM ERAP1 inhibitor</tspan></text>
      <text class="st17" transform="translate(486.57 701.43)"><tspan x="0" y="0">50µM ERAP1 inhibitor</tspan></text>
      <text class="st17" transform="translate(628.07 701.43)"><tspan x="0" y="0">KO</tspan></text>
    </g>
  </g>
</svg>